<svg width="20" height="20" viewBox="0 0 20 20" fill="none" xmlns="http://www.w3.org/2000/svg">
<path fill-rule="evenodd" clip-rule="evenodd" d="M10.667 1.9987C10.667 1.63051 10.3685 1.33203 10.0003 1.33203C9.63214 1.33203 9.33366 1.63051 9.33366 1.9987V17.9987C9.33366 18.3668 9.63214 18.6654 10.0003 18.6654C10.3685 18.6654 10.667 18.3668 10.667 17.9987V1.9987ZM4.42432 7.75603C4.65864 7.52172 4.65864 7.14182 4.42432 6.90751C4.19002 6.67319 3.81011 6.67319 3.5758 6.90751L0.909134 9.57418C0.67482 9.80849 0.67482 10.1884 0.909134 10.4227L3.5758 13.0894C3.81011 13.3237 4.19002 13.3237 4.42432 13.0894C4.65864 12.8551 4.65864 12.4752 4.42432 12.2408L2.78192 10.5984H7.33372C7.6651 10.5984 7.93372 10.3298 7.93372 9.99843C7.93372 9.66707 7.6651 9.39843 7.33372 9.39843H2.78192L4.42432 7.75603ZM16.4243 6.90751C16.19 6.67319 15.8102 6.67319 15.5758 6.90751C15.3415 7.14182 15.3415 7.52172 15.5758 7.75603L17.2182 9.39843H12.6671C12.3357 9.39843 12.0671 9.66707 12.0671 9.99843C12.0671 10.3298 12.3357 10.5984 12.6671 10.5984H17.2182L15.5758 12.2408C15.3415 12.4752 15.3415 12.8551 15.5758 13.0894C15.8102 13.3237 16.19 13.3237 16.4243 13.0894L19.091 10.4227C19.3254 10.1884 19.3254 9.80849 19.091 9.57418L16.4243 6.90751Z" fill="#F6F6F6"/>
</svg>
