<svg width="20" height="20" viewBox="0 0 20 20" fill="none" xmlns="http://www.w3.org/2000/svg">
<path fill-rule="evenodd" clip-rule="evenodd" d="M1.16943 9.99939C1.16943 5.12247 5.12296 1.16895 9.99988 1.16895C14.8767 1.16895 18.8303 5.12247 18.8303 9.99939C18.8303 14.8762 14.8767 18.8298 9.99988 18.8298C5.12296 18.8298 1.16943 14.8762 1.16943 9.99939ZM9.99988 2.43561C5.82252 2.43561 2.43609 5.82203 2.43609 9.99939C2.43609 11.9622 3.18374 13.7504 4.40977 15.0946C5.58773 13.2545 7.65099 12.0329 10.0004 12.0329C12.3495 12.0329 14.4125 13.2542 15.5906 15.094C16.8162 13.7498 17.5637 11.9618 17.5637 9.99939C17.5637 5.82203 14.1771 2.43561 9.99988 2.43561ZM14.6425 15.9712C13.7119 14.3722 11.981 13.2995 10.0004 13.2995C8.01952 13.2995 6.2884 14.3725 5.35801 15.9717C6.63944 16.9692 8.25028 17.5632 9.99988 17.5632C11.7498 17.5632 13.3609 16.9689 14.6425 15.9712ZM6.86673 8.67271C6.86673 6.94222 8.26957 5.53938 10.0001 5.53938C11.7306 5.53938 13.1334 6.94222 13.1334 8.67271C13.1334 10.4032 11.7306 11.806 10.0001 11.806C8.26957 11.806 6.86673 10.4032 6.86673 8.67271ZM10.0001 6.80605C8.96913 6.80605 8.1334 7.64178 8.1334 8.67271C8.1334 9.70365 8.96913 10.5394 10.0001 10.5394C11.031 10.5394 11.8667 9.70365 11.8667 8.67271C11.8667 7.64178 11.031 6.80605 10.0001 6.80605Z" fill="#F6F6F6"/>
</svg>
