<svg width="24" height="23" viewBox="0 0 24 23" fill="none" xmlns="http://www.w3.org/2000/svg">
<path d="M20.9785 9.48837H20.2287V9.44974H11.851V13.1731H17.1117C16.3442 15.3406 14.2819 16.8965 11.851 16.8965C8.76662 16.8965 6.26589 14.3958 6.26589 11.3114C6.26589 8.22707 8.76662 5.72633 11.851 5.72633C13.2747 5.72633 14.57 6.26344 15.5562 7.14076L18.1892 4.50785C16.5267 2.95845 14.3029 2.00293 11.851 2.00293C6.71037 2.00293 2.54248 6.17082 2.54248 11.3114C2.54248 16.4521 6.71037 20.62 11.851 20.62C16.9916 20.62 21.1595 16.4521 21.1595 11.3114C21.1595 10.6873 21.0953 10.0781 20.9785 9.48837Z" fill="#FFC107"/>
<path d="M3.61523 6.97879L6.67355 9.22168C7.50107 7.17288 9.50519 5.72633 11.8505 5.72633C13.2742 5.72633 14.5695 6.26343 15.5557 7.14076L18.1886 4.50785C16.5261 2.95845 14.3023 2.00293 11.8505 2.00293C8.27507 2.00293 5.17441 4.02148 3.61523 6.97879Z" fill="#FF3D00"/>
<path d="M11.8509 20.6199C14.2553 20.6199 16.44 19.6998 18.0918 18.2034L15.2108 15.7655C14.2448 16.5002 13.0644 16.8975 11.8509 16.8965C9.42972 16.8965 7.37394 15.3527 6.59947 13.1982L3.56396 15.537C5.10452 18.5516 8.23311 20.6199 11.8509 20.6199Z" fill="#4CAF50"/>
<path d="M20.978 9.48883H20.2282V9.4502H11.8506V13.1736H17.1113C16.7442 14.2052 16.0829 15.1066 15.2091 15.7665L15.2105 15.7656L18.0915 18.2035C17.8876 18.3887 21.1591 15.9662 21.1591 11.3119C21.1591 10.6878 21.0949 10.0785 20.978 9.48883Z" fill="#1976D2"/>
</svg>
