<svg width="20" height="20" viewBox="0 0 20 20" fill="none" xmlns="http://www.w3.org/2000/svg">
<path fill-rule="evenodd" clip-rule="evenodd" d="M4.00033 1.33301C3.26394 1.33301 2.66699 1.92997 2.66699 2.66634V17.333C2.66699 18.0694 3.26395 18.6663 4.00033 18.6663H14.0003C14.3685 18.6663 14.667 18.3678 14.667 17.9997C14.667 17.6315 14.3685 17.333 14.0003 17.333H4.00033V2.66634H14.0003C14.3685 2.66634 14.667 2.36786 14.667 1.99967C14.667 1.63149 14.3685 1.33301 14.0003 1.33301H4.00033ZM16.8051 6.52827C16.5447 6.26791 16.1226 6.26791 15.8622 6.52827C15.6019 6.78862 15.6019 7.21073 15.8622 7.47107L17.7242 9.33301H8.66699C8.29881 9.33301 8.00033 9.63149 8.00033 9.99967C8.00033 10.3679 8.29881 10.6663 8.66699 10.6663H17.7242L15.8622 12.5283C15.6019 12.7886 15.6019 13.2107 15.8622 13.4711C16.1226 13.7314 16.5447 13.7314 16.8051 13.4711L19.8051 10.4711C20.0654 10.2107 20.0654 9.78862 19.8051 9.52827L16.8051 6.52827Z" fill="#FF6969"/>
</svg>
