<svg width="20" height="20" viewBox="0 0 20 20" fill="none" xmlns="http://www.w3.org/2000/svg">
<path fill-rule="evenodd" clip-rule="evenodd" d="M3.99984 1.33301C3.26345 1.33301 2.6665 1.92997 2.6665 2.66634V17.333C2.6665 18.0694 3.26346 18.6663 3.99984 18.6663H13.9998C14.368 18.6663 14.6665 18.3678 14.6665 17.9997C14.6665 17.6315 14.368 17.333 13.9998 17.333H3.99984V2.66634H13.9998C14.368 2.66634 14.6665 2.36786 14.6665 1.99967C14.6665 1.63149 14.368 1.33301 13.9998 1.33301H3.99984ZM16.8046 6.52827C16.5442 6.26791 16.1221 6.26791 15.8617 6.52827C15.6014 6.78862 15.6014 7.21073 15.8617 7.47107L17.7237 9.33301H8.6665C8.29832 9.33301 7.99984 9.63149 7.99984 9.99967C7.99984 10.3679 8.29832 10.6663 8.6665 10.6663H17.7237L15.8617 12.5283C15.6014 12.7886 15.6014 13.2107 15.8617 13.4711C16.1221 13.7314 16.5442 13.7314 16.8046 13.4711L19.8046 10.4711C20.0649 10.2107 20.0649 9.78862 19.8046 9.52827L16.8046 6.52827Z" fill="#FFE4E4"/>
</svg>
