<svg width="40" height="40" viewBox="0 0 40 40" fill="none" xmlns="http://www.w3.org/2000/svg">
<rect x="0.327148" y="0.296875" width="39.4128" height="39.4128" rx="8.95745" fill="#92B0FC"/>
<path d="M24.4167 22.8832H26.0916V24.76H24.4167V22.8832ZM24.4167 19.1296H26.0916V21.0064H24.4167V19.1296ZM24.4167 15.376H26.0916V17.2528H24.4167V15.376ZM21.6865 15.376L22.7417 16.1642V15.376H21.6865Z" fill="white"/>
<path d="M18.5557 11.6221V13.0391L20.2306 14.2871V13.4989H27.7679V26.6365H24.418V28.5133H29.4428V11.6221H18.5557Z" fill="white"/>
<path d="M17.0223 14.1558L22.7422 18.4255V28.5133H11.0176V18.6413L17.0223 14.1558ZM18.5548 26.6365H21.0673V19.2794L17.0223 16.3985L12.6925 19.4859V26.6365H15.2049V21.0061H18.5548V26.6365Z" fill="white"/>
<path opacity="0.3" d="M18.5547 26.6369H21.0671V19.2798L17.0221 16.3989L12.6924 19.4863V26.6369H15.2048V21.0065H18.5547V26.6369Z" fill="white"/>
</svg>
