<svg width="20" height="20" viewBox="0 0 20 20" fill="none" xmlns="http://www.w3.org/2000/svg">
<path fill-rule="evenodd" clip-rule="evenodd" d="M1.33333 2.66699C0.596953 2.66699 0 3.26395 0 4.00033V16.0003C0 16.7367 0.596953 17.3337 1.33333 17.3337H18.6667C19.4031 17.3337 20 16.7367 20 16.0003V4.00033C20 3.26395 19.4031 2.66699 18.6667 2.66699H1.33333ZM1.33333 4.00033H18.6667V5.23358C18.5565 5.23347 18.4451 5.26367 18.3452 5.32706L10 10.623L1.65483 5.32706C1.55495 5.26367 1.44347 5.23347 1.33333 5.23358V4.00033ZM1.33333 6.54428V16.0003H18.6667V6.54428L10.3215 11.8403C10.1253 11.9648 9.87475 11.9648 9.67851 11.8403L1.33333 6.54428Z" fill="#F6F6F6"/>
</svg>
