<svg width="20" height="16" viewBox="0 0 20 16" fill="none" xmlns="http://www.w3.org/2000/svg">
<path fill-rule="evenodd" clip-rule="evenodd" d="M14 1.77778C11.4227 1.77778 9.33333 4.56356 9.33333 8C9.33333 11.4364 11.4227 14.2222 14 14.2222C16.5773 14.2222 18.6667 11.4364 18.6667 8C18.6667 4.56356 16.5773 1.77778 14 1.77778ZM10.2284 14.2222C8.86911 12.7556 8 10.5131 8 8C8 5.48688 8.86911 3.24441 10.2284 1.77778H6C3.42267 1.77778 1.33333 4.56356 1.33333 8C1.33333 11.4364 3.42267 14.2222 6 14.2222H10.2284ZM0 8C0 3.58172 2.68629 0 6 0H14C17.3137 0 20 3.58172 20 8C20 12.4183 17.3137 16 14 16H6C2.68629 16 0 12.4183 0 8Z" fill="#F6F6F6"/>
</svg>
