<svg width="20" height="20" viewBox="0 0 20 20" fill="none" xmlns="http://www.w3.org/2000/svg">
<path fill-rule="evenodd" clip-rule="evenodd" d="M3.99984 4.00033H15.9998V16.0003H3.99984V4.00033ZM2.6665 4.00033C2.6665 3.26394 3.26346 2.66699 3.99984 2.66699H15.9998C16.7362 2.66699 17.3332 3.26395 17.3332 4.00033V16.0003C17.3332 16.7367 16.7362 17.3337 15.9998 17.3337H3.99984C3.26345 17.3337 2.6665 16.7367 2.6665 16.0003V4.00033ZM13.7996 7.34839C14.0078 7.04482 13.9306 6.62982 13.627 6.42148C13.3235 6.21314 12.9085 6.29034 12.7002 6.59391L8.85381 12.1984L6.92961 9.87884C6.69453 9.59546 6.27424 9.55631 5.99086 9.79138C5.70748 10.0265 5.66833 10.4468 5.9034 10.7301L8.39104 13.7289C8.52448 13.8898 8.72566 13.9787 8.93446 13.9693C9.14326 13.9597 9.33553 13.8529 9.4538 13.6805L13.7996 7.34839Z" fill="#F6F6F6"/>
</svg>
