<svg width="20" height="20" viewBox="0 0 20 20" fill="none" xmlns="http://www.w3.org/2000/svg">
<g clip-path="url(#clip0_4723_27559)">
<g clip-path="url(#clip1_4723_27559)">
<path fill-rule="evenodd" clip-rule="evenodd" d="M6.00036 0C6.36855 0 6.66701 0.298471 6.66701 0.666653V3.33327C6.66701 3.70145 6.36855 3.99992 6.00036 3.99992C5.63219 3.99992 5.33371 3.70145 5.33371 3.33327V0.666653C5.33371 0.298471 5.63219 0 6.00036 0ZM0.862016 0.86196C1.12236 0.601616 1.54447 0.601616 1.8048 0.86196L3.80476 2.86192C4.06511 3.12227 4.06511 3.54436 3.80476 3.80471C3.54443 4.06505 3.12232 4.06505 2.86197 3.80471L0.862017 1.80475C0.601672 1.5444 0.601672 1.1223 0.862016 0.86196ZM0.000488281 5.99988C0.000488281 5.63169 0.298959 5.33323 0.667141 5.33323H3.33375C3.70194 5.33323 4.0004 5.63169 4.0004 5.99988C4.0004 6.36807 3.70194 6.66653 3.33375 6.66653H0.667141C0.298959 6.66653 0.000488281 6.36807 0.000488281 5.99988ZM16.0002 13.9997C16.0002 13.6315 16.2986 13.3331 16.6669 13.3331H19.3334C19.7015 13.3331 20.0001 13.6315 20.0001 13.9997C20.0001 14.3679 19.7015 14.6664 19.3334 14.6664H16.6669C16.2986 14.6664 16.0002 14.3679 16.0002 13.9997ZM14.0002 15.9997C14.3683 15.9997 14.6669 16.2981 14.6669 16.6663V19.3329C14.6669 19.7011 14.3683 19.9996 14.0002 19.9996C13.6321 19.9996 13.3335 19.7011 13.3335 19.3329V16.6663C13.3335 16.2981 13.6321 15.9997 14.0002 15.9997ZM16.195 16.1949C16.4554 15.9347 16.8774 15.9347 17.1378 16.1949L19.1378 18.1949C19.3981 18.4553 19.3981 18.8773 19.1378 19.1377C18.8774 19.398 18.4553 19.398 18.195 19.1377L16.195 17.1377C15.9347 16.8775 15.9347 16.4553 16.195 16.1949ZM10.3531 4.93251C10.9224 4.36317 11.1431 4.14677 11.3489 4.00696C12.2507 3.39436 13.3909 3.38236 14.2379 3.93868C14.4303 4.065 14.6357 4.26548 15.1849 4.81465C15.7341 5.36383 15.9346 5.56925 16.0609 5.7616C16.6171 6.60871 16.6053 7.74891 15.9926 8.65069C15.8527 8.85651 15.6363 9.07713 15.067 9.64645L14.2421 10.4714C13.9818 10.7317 13.9818 11.1538 14.2421 11.4142C14.5025 11.6745 14.9246 11.6745 15.1849 11.4142L16.0098 10.5892L16.067 10.532C16.5599 10.0393 16.8753 9.72404 17.0955 9.39991C17.9958 8.07464 18.0422 6.34973 17.1754 5.02971C16.9639 4.70777 16.6558 4.39976 16.1873 3.93137L16.1277 3.87187L16.0682 3.81233C15.5998 3.34376 15.2918 3.03563 14.9698 2.82421C13.6498 1.95731 11.9249 2.00379 10.5997 2.90407C10.2755 3.12425 9.96024 3.43964 9.46755 3.93248V3.93249L9.41034 3.98971L8.58539 4.81465C8.32504 5.075 8.32504 5.49709 8.58539 5.75744C8.84574 6.01779 9.26783 6.01779 9.52818 5.75744L10.3531 4.93251ZM3.98929 9.41076L3.93207 9.46796C3.43921 9.96067 3.12384 10.276 2.90364 10.6001C2.00336 11.9253 1.95688 13.6503 2.82379 14.9703C3.0352 15.2923 3.34333 15.6003 3.81189 16.0687H3.81192L3.87144 16.1281L3.93095 16.1876L3.93097 16.1877C4.39935 16.6563 4.70735 16.9644 5.02928 17.1757C6.34932 18.0427 8.07421 17.9963 9.3995 17.0959C9.72361 16.8757 10.0389 16.5604 10.5316 16.0675L10.5888 16.0103L11.4138 15.1853C11.6741 14.9249 11.6741 14.5029 11.4138 14.2425C11.1534 13.9823 10.7313 13.9823 10.471 14.2425L9.64603 15.0675C9.07671 15.6368 8.85608 15.8532 8.65027 15.9931C7.74848 16.6056 6.60828 16.6176 5.76117 16.0613C5.56883 15.9349 5.3634 15.7345 4.81423 15.1853C4.26505 14.6361 4.06457 14.4308 3.93825 14.2384C3.38193 13.3913 3.39393 12.2511 4.00653 11.3493C4.14636 11.1435 4.36276 10.9229 4.93208 10.3535L5.75701 9.5286C6.01736 9.26825 6.01736 8.84616 5.75701 8.58581C5.49668 8.32547 5.07457 8.32547 4.81423 8.58581L3.98929 9.41076Z" fill="#F6F6F6"/>
</g>
</g>
<defs>
<clipPath id="clip0_4723_27559">
<rect width="20" height="20" fill="white"/>
</clipPath>
<clipPath id="clip1_4723_27559">
<rect width="20" height="20" fill="white"/>
</clipPath>
</defs>
</svg>
