<svg width="16" height="20" viewBox="0 0 16 20" fill="none" xmlns="http://www.w3.org/2000/svg">
<path fill-rule="evenodd" clip-rule="evenodd" d="M9.5954 0.0538054C9.87797 0.174717 10.0413 0.473141 9.99072 0.776313L8.78677 8.00001H14.6664C14.9189 8.00001 15.1499 8.14268 15.2628 8.36853C15.3756 8.59439 15.3513 8.86467 15.1997 9.06667L7.19981 19.7333C7.0154 19.9792 6.68679 20.0671 6.40421 19.9461C6.12164 19.8253 5.95836 19.5268 6.00889 19.2237L7.21284 12H1.33317C1.08067 12 0.849813 11.8573 0.736893 11.6315C0.62396 11.4056 0.648333 11.1353 0.79984 10.9333L8.7998 0.266716C8.98421 0.020834 9.31283 -0.0671068 9.5954 0.0538054ZM2.66651 10.6667H7.9998C8.19577 10.6667 8.38181 10.7529 8.50848 10.9024C8.63515 11.0519 8.68961 11.2496 8.6574 11.4429L7.77353 16.7461L13.3331 9.33333H7.9998C7.80384 9.33333 7.6178 9.24712 7.49113 9.09759C7.36447 8.94807 7.31 8.75037 7.34221 8.55708L8.22608 3.25389L2.66651 10.6667Z" fill="#1737E6"/>
</svg>
