<svg width="139" height="37" viewBox="0 0 139 37" fill="none" xmlns="http://www.w3.org/2000/svg">
<path d="M49.1626 29.7589V12.3574H60.5231V14.9182H52.3443V19.691H59.7772V22.1774H52.3443V27.1989H60.5231V29.7589H49.1626Z" fill="white"/>
<path d="M67.1106 30.0555C66.0205 30.0555 65.0628 29.8781 64.2375 29.5233C63.4122 29.1686 62.7517 28.6772 62.2562 28.0493C61.7604 27.4209 61.4513 26.6657 61.3643 25.87H64.5591C64.6582 26.3489 64.9266 26.7576 65.3642 27.0961C65.8019 27.4347 66.3673 27.6039 67.0607 27.6039C67.7548 27.6039 68.2626 27.4634 68.5841 27.1823C68.9055 26.9012 69.0665 26.5793 69.0669 26.2167C69.0669 25.6904 68.8358 25.3313 68.3736 25.1392C67.9114 24.9471 67.2674 24.7614 66.4417 24.5821C65.9128 24.4672 65.3763 24.3269 64.8321 24.1611C64.311 24.0062 63.8085 23.7944 63.3337 23.5296C62.8953 23.2881 62.5181 22.9492 62.2312 22.539C61.9506 22.1342 61.8102 21.6348 61.8102 21.0406C61.8102 19.9504 62.2437 19.0339 63.1107 18.291C63.9776 17.5482 65.1952 17.1768 66.7633 17.1768C68.2166 17.1768 69.3767 17.5153 70.2437 18.1924C71.1106 18.8694 71.6265 19.8022 71.7914 20.9906H68.7946C68.613 20.0828 67.9278 19.6288 66.739 19.6283C66.1444 19.6283 65.6861 19.7441 65.3642 19.9756C65.0424 20.2072 64.8814 20.4959 64.8814 20.8419C64.8814 21.2059 65.1209 21.4949 65.5997 21.7089C66.0786 21.9229 66.7144 22.1202 67.5073 22.3009C68.3659 22.4987 69.1553 22.7179 69.8753 22.9587C70.5954 23.1994 71.1692 23.5544 71.5967 24.0236C72.0256 24.4941 72.2403 25.1668 72.2407 26.0417C72.266 26.7725 72.0587 27.4925 71.6487 28.0979C71.2356 28.7088 70.6412 29.1877 69.8654 29.5345C69.0897 29.8814 68.1714 30.055 67.1106 30.0555Z" fill="white"/>
<path d="M78.7011 29.7588C77.4132 29.7588 76.3813 29.4453 75.6056 28.8182C74.8298 28.1911 74.4418 27.0764 74.4413 25.4741V20.1243H72.3364V17.4748H74.4413L74.813 14.1807H77.6118V17.4748H80.9303V20.1243H77.6118V25.499C77.6118 26.0937 77.7396 26.5024 77.9953 26.7251C78.2509 26.9479 78.6927 27.0593 79.3207 27.0593H80.856V29.7562L78.7011 29.7588Z" fill="white"/>
<path d="M86.4756 30.0557C85.4183 30.0557 84.5514 29.8864 83.8747 29.5479C83.1981 29.2093 82.6938 28.7594 82.3619 28.1981C82.0307 27.6356 81.8592 26.9933 81.8659 26.3405C81.8659 25.2004 82.3119 24.2758 83.2038 23.5667C84.0958 22.8576 85.4332 22.5026 87.2162 22.5018H90.3374V22.2044C90.3374 21.3625 90.098 20.7433 89.6191 20.3469C89.1402 19.9504 88.5458 19.7531 87.8359 19.7549C87.1921 19.7549 86.6306 19.9084 86.1513 20.2153C85.672 20.5223 85.3749 20.9722 85.26 21.5651H82.1639C82.2468 20.6736 82.5482 19.8976 83.0683 19.2372C83.6012 18.5668 84.2956 18.0426 85.0864 17.7138C85.9121 17.359 86.8367 17.1816 87.8602 17.1816C89.6108 17.1816 90.9895 17.6191 91.9963 18.4939C93.0031 19.3688 93.5074 20.6071 93.5092 22.209V29.763H90.8123L90.515 27.7817C90.1503 28.4441 89.6271 29.0056 88.9922 29.4163C88.3397 29.843 87.5008 30.0561 86.4756 30.0557ZM87.1939 27.5792C88.1016 27.5792 88.8074 27.2818 89.3113 26.6872C89.8151 26.0926 90.133 25.3578 90.265 24.483H87.5682C86.7258 24.483 86.123 24.6365 85.7599 24.9434C85.3968 25.2504 85.2153 25.626 85.2153 26.0702C85.2153 26.5491 85.3968 26.9205 85.7599 27.1845C86.123 27.4485 86.6028 27.58 87.1991 27.5792H87.1939Z" fill="white"/>
<path d="M100.42 29.7588C99.132 29.7588 98.1 29.4453 97.3238 28.8182C96.5476 28.1911 96.1596 27.0764 96.1596 25.4741V20.1243H94.0547V17.4748H96.1596L96.5312 14.1807H99.33V17.4748H102.648V20.1243H99.33V25.499C99.33 26.0937 99.4581 26.5024 99.7141 26.7251C99.9702 26.9479 100.412 27.0593 101.039 27.0593H102.575V29.7562L100.42 29.7588Z" fill="white"/>
<path d="M109.611 30.056C108.373 30.056 107.274 29.7929 106.317 29.2667C105.371 28.7505 104.59 27.9781 104.063 27.0381C103.518 26.0804 103.245 24.974 103.246 23.719C103.246 22.4473 103.514 21.3163 104.051 20.3262C104.562 19.3608 105.335 18.5584 106.28 18.0101C107.229 17.4567 108.347 17.1802 109.635 17.1807C110.84 17.1807 111.905 17.4438 112.829 17.97C113.736 18.4807 114.486 19.23 114.997 20.1367C115.516 21.0528 115.776 22.0724 115.777 23.1954C115.777 23.3776 115.772 23.567 115.764 23.765C115.756 23.963 115.743 24.1702 115.727 24.3847H106.391C106.457 25.3424 106.791 26.0936 107.394 26.6382C107.997 27.1829 108.728 27.4554 109.586 27.4558C110.23 27.4558 110.771 27.3113 111.209 27.0224C111.634 26.7464 111.973 26.3558 112.187 25.8956H115.407C115.174 26.6737 114.782 27.3948 114.255 28.013C113.713 28.6526 113.036 29.1644 112.274 29.5114C111.489 29.8745 110.601 30.056 109.611 30.056ZM109.636 19.7532C108.897 19.7418 108.175 19.9729 107.58 20.411C106.986 20.8495 106.606 21.5141 106.441 22.4047H112.558C112.508 21.5966 112.211 20.9528 111.666 20.4735C111.122 19.9942 110.445 19.7541 109.636 19.7532Z" fill="white"/>
<path d="M120.264 12.8564V29.7613H117.304V12.8564H120.264Z" fill="#EACB30"/>
<path d="M138.09 21.2962C138.09 23.0064 137.743 24.5209 137.05 25.8395C136.356 27.1581 135.393 28.1871 134.159 28.9264C132.926 29.6667 131.501 30.0365 129.884 30.0361C128.28 30.0361 126.862 29.6662 125.629 28.9264C124.401 28.1915 123.403 27.126 122.751 25.8513C122.065 24.541 121.722 23.0303 121.722 21.3192C121.722 19.5932 122.069 18.0709 122.762 16.7523C123.456 15.4337 124.415 14.4049 125.641 13.666C126.869 12.9262 128.291 12.5561 129.907 12.5557C131.523 12.5552 132.945 12.9253 134.173 13.666C135.398 14.4062 136.358 15.4313 137.052 16.7411C137.745 18.051 138.092 19.5693 138.09 21.2962ZM134.992 21.2962C134.992 20.0938 134.783 19.0532 134.367 18.1744C133.951 17.2956 133.366 16.6135 132.61 16.1281C131.854 15.6426 130.953 15.3999 129.905 15.3999C128.872 15.3999 127.974 15.6426 127.211 16.1281C126.448 16.6135 125.859 17.2956 125.443 18.1744C125.027 19.0514 124.818 20.092 124.818 21.2962C124.818 22.5004 125.027 23.5447 125.443 24.4292C125.858 25.3159 126.448 25.998 127.211 26.4756C127.975 26.9531 128.873 27.1921 129.905 27.1925C130.953 27.1925 131.854 26.9496 132.61 26.4637C133.366 25.9778 133.952 25.292 134.367 24.4062C134.784 23.5195 134.992 22.4828 134.992 21.2962ZM135.963 31.0313L129.905 24.1904L131.778 22.5026L137.859 29.3435L135.963 31.0313Z" fill="#EACB30"/>
<path d="M34.4061 31.6592H29.5215V36.1689H34.4061V31.6592Z" fill="white"/>
<path d="M6.85536 31.6592H1.9707V36.1689H6.85536V31.6592Z" fill="#EACB30"/>
<path d="M18.3014 0L2.20356 14.6224C2.13025 14.689 2.07167 14.7703 2.03158 14.8609C1.99148 14.9515 1.97075 15.0495 1.9707 15.1486V27.7292C1.97087 27.734 1.97286 27.7386 1.97628 27.742C1.9797 27.7455 1.98429 27.7475 1.98912 27.7476H9.77195V36.8657H26.44V32.4724C26.4399 32.4415 26.4275 32.4119 26.4055 32.3901C26.3836 32.3682 26.3539 32.356 26.323 32.356H14.6566V27.7476H26.44V23.2379H14.6566V19.1735H26.44V14.7473C26.44 14.7364 26.4379 14.7256 26.4337 14.7155C26.4295 14.7054 26.4233 14.6962 26.4155 14.6885C26.4078 14.6808 26.3986 14.6747 26.3884 14.6706C26.3783 14.6664 26.3674 14.6644 26.3565 14.6645H9.77195V23.2373H6.85536V16.7253L18.3007 6.3278L29.5204 16.5161V27.7443H34.4044V14.8671C34.4045 14.7918 34.3888 14.7173 34.3585 14.6485C34.3281 14.5796 34.2837 14.5178 34.2281 14.4671L18.3014 0Z" fill="white"/>
</svg>
