<svg width="20" height="20" viewBox="0 0 20 20" fill="none" xmlns="http://www.w3.org/2000/svg">
<path fill-rule="evenodd" clip-rule="evenodd" d="M1.16895 9.99939C1.16895 5.12247 5.12247 1.16895 9.99939 1.16895C14.8763 1.16895 18.8299 5.12247 18.8299 9.99939C18.8299 14.8762 14.8763 18.8298 9.99939 18.8298C5.12247 18.8298 1.16895 14.8762 1.16895 9.99939ZM9.99939 2.43561C5.82203 2.43561 2.43561 5.82203 2.43561 9.99939C2.43561 11.9622 3.18325 13.7504 4.40929 15.0946C5.58725 13.2545 7.6505 12.0329 9.9999 12.0329C12.349 12.0329 14.412 13.2542 15.5901 15.094C16.8157 13.7498 17.5632 11.9618 17.5632 9.99939C17.5632 5.82203 14.1767 2.43561 9.99939 2.43561ZM14.642 15.9712C13.7115 14.3722 11.9805 13.2995 9.9999 13.2995C8.01903 13.2995 6.28791 14.3725 5.35753 15.9717C6.63895 16.9692 8.24979 17.5632 9.99939 17.5632C11.7493 17.5632 13.3604 16.9689 14.642 15.9712ZM6.86625 8.67271C6.86625 6.94222 8.26909 5.53938 9.99958 5.53938C11.7301 5.53938 13.1329 6.94222 13.1329 8.67271C13.1329 10.4032 11.7301 11.806 9.99958 11.806C8.26909 11.806 6.86625 10.4032 6.86625 8.67271ZM9.99958 6.80605C8.96865 6.80605 8.13291 7.64178 8.13291 8.67271C8.13291 9.70365 8.96865 10.5394 9.99958 10.5394C11.0305 10.5394 11.8662 9.70365 11.8662 8.67271C11.8662 7.64178 11.0305 6.80605 9.99958 6.80605Z" fill="#2D4BF3"/>
</svg>
