<svg width="15" height="14" viewBox="0 0 15 14" fill="none" xmlns="http://www.w3.org/2000/svg">
<path d="M4.14648 12.25H10.2715C10.5632 12.25 10.709 12.3958 10.709 12.6875C10.709 12.9792 10.5632 13.125 10.2715 13.125H4.14648C3.85482 13.125 3.70898 12.9792 3.70898 12.6875C3.70898 12.3958 3.85482 12.25 4.14648 12.25Z" fill="#2D4BF3"/>
<path d="M11.1465 5.6875C11.1465 4.64321 10.7316 3.64169 9.99322 2.90327C9.25479 2.16484 8.25327 1.75 7.20898 1.75C6.16469 1.75 5.16318 2.16484 4.42475 2.90327C3.68633 3.64169 3.27148 4.64321 3.27148 5.6875C3.27148 7.30275 4.56386 9.408 7.20898 11.9297C9.85411 9.408 11.1465 7.30275 11.1465 5.6875ZM7.20898 13.125C4.00036 10.2086 2.39648 7.72888 2.39648 5.6875C2.39648 4.41115 2.90351 3.18707 3.80603 2.28455C4.70855 1.38203 5.93263 0.875 7.20898 0.875C8.48534 0.875 9.70942 1.38203 10.6119 2.28455C11.5145 3.18707 12.0215 4.41115 12.0215 5.6875C12.0215 7.72888 10.4176 10.2086 7.20898 13.125Z" fill="#2D4BF3"/>
<path d="M7.20898 7C7.55708 7 7.89092 6.86172 8.13706 6.61558C8.3832 6.36944 8.52148 6.0356 8.52148 5.6875C8.52148 5.3394 8.3832 5.00556 8.13706 4.75942C7.89092 4.51328 7.55708 4.375 7.20898 4.375C6.86089 4.375 6.52705 4.51328 6.28091 4.75942C6.03477 5.00556 5.89648 5.3394 5.89648 5.6875C5.89648 6.0356 6.03477 6.36944 6.28091 6.61558C6.52705 6.86172 6.86089 7 7.20898 7ZM7.20898 7.875C6.62882 7.875 6.07242 7.64453 5.66219 7.2343C5.25195 6.82406 5.02148 6.26766 5.02148 5.6875C5.02148 5.10734 5.25195 4.55094 5.66219 4.1407C6.07242 3.73047 6.62882 3.5 7.20898 3.5C7.78915 3.5 8.34554 3.73047 8.75578 4.1407C9.16602 4.55094 9.39648 5.10734 9.39648 5.6875C9.39648 6.26766 9.16602 6.82406 8.75578 7.2343C8.34554 7.64453 7.78915 7.875 7.20898 7.875Z" fill="#2D4BF3"/>
</svg>
