<svg width="20" height="20" viewBox="0 0 20 20" fill="none" xmlns="http://www.w3.org/2000/svg">
<path fill-rule="evenodd" clip-rule="evenodd" d="M3.73358 1.33309L3.66647 1.33305C3.36187 1.33276 3.0993 1.33251 2.86668 1.38836C2.13539 1.56392 1.5644 2.1349 1.38884 2.8662C1.333 3.09881 1.33325 3.36138 1.33354 3.66598L1.33358 3.73309V6.93309L1.33354 7.0002C1.33325 7.3048 1.333 7.56738 1.38884 7.79998C1.5644 8.53128 2.13539 9.10226 2.86668 9.27784C3.0993 9.33368 3.36187 9.33342 3.66647 9.33313L3.73358 9.33309H6.93358L7.00068 9.33313C7.30528 9.33342 7.56787 9.33368 7.80047 9.27784C8.53176 9.10226 9.10275 8.53128 9.27832 7.79998C9.33416 7.56738 9.33391 7.3048 9.33362 7.0002L9.33358 6.93309V3.73309L9.33362 3.66598C9.33391 3.36138 9.33416 3.09881 9.27832 2.8662C9.10275 2.1349 8.53176 1.56392 7.80047 1.38836C7.56787 1.33251 7.30528 1.33276 7.00068 1.33305L6.93358 1.33309H3.73358ZM3.17795 2.68485C3.23534 2.67106 3.3232 2.66642 3.73358 2.66642H6.93358C7.34396 2.66642 7.43183 2.67106 7.4892 2.68485C7.73298 2.74337 7.9233 2.93369 7.98183 3.17746C7.9956 3.23485 8.00024 3.32272 8.00024 3.73309V6.93309C8.00024 7.34348 7.9956 7.43134 7.98183 7.48872C7.9233 7.73249 7.73298 7.92281 7.4892 7.98134C7.43183 7.99512 7.34396 7.99976 6.93358 7.99976H3.73358C3.3232 7.99976 3.23534 7.99512 3.17795 7.98134C2.93418 7.92281 2.74386 7.73249 2.68534 7.48872C2.67155 7.43134 2.66691 7.34348 2.66691 6.93309V3.73309C2.66691 3.32272 2.67155 3.23485 2.68534 3.17746C2.74386 2.93369 2.93418 2.74337 3.17795 2.68485ZM13.0669 1.33309L12.9998 1.33305C12.6952 1.33276 12.4326 1.33251 12.2 1.38836C11.4687 1.56392 10.8977 2.1349 10.7222 2.8662C10.6663 3.09881 10.6666 3.36138 10.6669 3.66598L10.6669 3.73309V6.93309L10.6669 7.0002C10.6666 7.3048 10.6663 7.56738 10.7222 7.79998C10.8977 8.53128 11.4687 9.10226 12.2 9.27784C12.4326 9.33368 12.6952 9.33342 12.9998 9.33313L13.0669 9.33309H16.2669L16.334 9.33313C16.6386 9.33342 16.9012 9.33368 17.1338 9.27784C17.865 9.10226 18.4361 8.53128 18.6117 7.79998C18.6674 7.56738 18.6673 7.3048 18.6669 7.0002V6.93309V3.73309V3.66598C18.6673 3.36138 18.6674 3.09881 18.6117 2.8662C18.4361 2.1349 17.865 1.56392 17.1338 1.38836C16.9012 1.33251 16.6386 1.33276 16.334 1.33305L16.2669 1.33309H13.0669ZM12.5113 2.68485C12.5687 2.67106 12.6565 2.66642 13.0669 2.66642H16.2669C16.6773 2.66642 16.7652 2.67106 16.8225 2.68485C17.0662 2.74337 17.2566 2.93369 17.3152 3.17746C17.3289 3.23485 17.3336 3.32272 17.3336 3.73309V6.93309C17.3336 7.34348 17.3289 7.43134 17.3152 7.48872C17.2566 7.73249 17.0662 7.92281 16.8225 7.98134C16.7652 7.99512 16.6773 7.99976 16.2669 7.99976H13.0669C12.6565 7.99976 12.5687 7.99512 12.5113 7.98134C12.2675 7.92281 12.0772 7.73249 12.0187 7.48872C12.0049 7.43134 12.0002 7.34348 12.0002 6.93309V3.73309C12.0002 3.32272 12.0049 3.23485 12.0187 3.17746C12.0772 2.93369 12.2675 2.74337 12.5113 2.68485ZM3.66647 10.6664L3.73358 10.6664H6.93358L7.00068 10.6664C7.30528 10.6661 7.56787 10.6658 7.80047 10.7217C8.53176 10.8972 9.10275 11.4682 9.27832 12.1995C9.33416 12.4321 9.33391 12.6947 9.33362 12.9993L9.33358 13.0664V16.2664L9.33362 16.3335C9.33391 16.6382 9.33416 16.9007 9.27832 17.1334C9.10275 17.8646 8.53176 18.4356 7.80047 18.6112C7.56787 18.667 7.30528 18.6668 7.00068 18.6664H6.93358H3.73358H3.66647C3.36187 18.6668 3.0993 18.667 2.86668 18.6112C2.13539 18.4356 1.5644 17.8646 1.38884 17.1334C1.333 16.9007 1.33325 16.6382 1.33354 16.3335L1.33358 16.2664V13.0664L1.33354 12.9993C1.33325 12.6947 1.333 12.4321 1.38884 12.1995C1.5644 11.4682 2.13539 10.8972 2.86668 10.7217C3.0993 10.6658 3.36187 10.6661 3.66647 10.6664ZM3.73358 11.9998C3.3232 11.9998 3.23534 12.0044 3.17795 12.0182C2.93418 12.0767 2.74386 12.267 2.68534 12.5108C2.67155 12.5682 2.66691 12.656 2.66691 13.0664V16.2664C2.66691 16.6768 2.67155 16.7647 2.68534 16.822C2.74386 17.0658 2.93418 17.2562 3.17795 17.3147C3.23534 17.3284 3.3232 17.3331 3.73358 17.3331H6.93358C7.34396 17.3331 7.43183 17.3284 7.4892 17.3147C7.73298 17.2562 7.9233 17.0658 7.98183 16.822C7.9956 16.7647 8.00024 16.6768 8.00024 16.2664V13.0664C8.00024 12.656 7.9956 12.5682 7.98183 12.5108C7.9233 12.267 7.73298 12.0767 7.4892 12.0182C7.43183 12.0044 7.34396 11.9998 6.93358 11.9998H3.73358ZM13.0669 10.6664L12.9998 10.6664C12.6952 10.6661 12.4326 10.6658 12.2 10.7217C11.4687 10.8972 10.8977 11.4682 10.7222 12.1995C10.6663 12.4321 10.6666 12.6947 10.6669 12.9993L10.6669 13.0664V16.2664L10.6669 16.3335C10.6666 16.6382 10.6663 16.9007 10.7222 17.1334C10.8977 17.8646 11.4687 18.4356 12.2 18.6112C12.4326 18.667 12.6952 18.6668 12.9998 18.6664H13.0669H16.2669H16.334C16.6386 18.6668 16.9012 18.667 17.1338 18.6112C17.865 18.4356 18.4361 17.8646 18.6117 17.1334C18.6674 16.9007 18.6673 16.6382 18.6669 16.3335V16.2664V13.0664V12.9993C18.6673 12.6947 18.6674 12.4321 18.6117 12.1995C18.4361 11.4682 17.865 10.8972 17.1338 10.7217C16.9012 10.6658 16.6386 10.6661 16.334 10.6664L16.2669 10.6664H13.0669ZM12.5113 12.0182C12.5687 12.0044 12.6565 11.9998 13.0669 11.9998H16.2669C16.6773 11.9998 16.7652 12.0044 16.8225 12.0182C17.0662 12.0767 17.2566 12.267 17.3152 12.5108C17.3289 12.5682 17.3336 12.656 17.3336 13.0664V16.2664C17.3336 16.6768 17.3289 16.7647 17.3152 16.822C17.2566 17.0658 17.0662 17.2562 16.8225 17.3147C16.7652 17.3284 16.6773 17.3331 16.2669 17.3331H13.0669C12.6565 17.3331 12.5687 17.3284 12.5113 17.3147C12.2675 17.2562 12.0772 17.0658 12.0187 16.822C12.0049 16.7647 12.0002 16.6768 12.0002 16.2664V13.0664C12.0002 12.656 12.0049 12.5682 12.0187 12.5108C12.0772 12.267 12.2675 12.0767 12.5113 12.0182Z" fill="#1737E6"/>
</svg>
