<svg width="41" height="40" viewBox="0 0 41 40" fill="none" xmlns="http://www.w3.org/2000/svg">
<path d="M20.333 3.36719C11.1497 3.36719 3.69971 10.8172 3.69971 20.0005C3.69971 29.1839 11.1497 36.6339 20.333 36.6339C29.5164 36.6339 36.9664 29.1839 36.9664 20.0005C36.9664 10.8172 29.5164 3.36719 20.333 3.36719ZM19.4664 29.8005V22.9005H15.033C14.4164 22.9005 13.9997 22.2339 14.2997 21.6839L20.433 9.73385C20.8164 8.95052 21.9997 9.23385 21.9997 10.1172V17.1005H26.233C26.8497 17.1005 27.2497 17.7505 26.983 18.3005L21.0497 30.1672C20.6497 30.9672 19.4664 30.6839 19.4664 29.8005Z" fill="#00BA07"/>
</svg>
