<svg width="20" height="20" viewBox="0 0 20 20" fill="none" xmlns="http://www.w3.org/2000/svg">
<path fill-rule="evenodd" clip-rule="evenodd" d="M4.00033 4.00033H16.0003V16.0003H4.00033V4.00033ZM2.66699 4.00033C2.66699 3.26394 3.26395 2.66699 4.00033 2.66699H16.0003C16.7367 2.66699 17.3337 3.26395 17.3337 4.00033V16.0003C17.3337 16.7367 16.7367 17.3337 16.0003 17.3337H4.00033C3.26394 17.3337 2.66699 16.7367 2.66699 16.0003V4.00033ZM13.8001 7.34839C14.0083 7.04482 13.9311 6.62982 13.6275 6.42148C13.324 6.21314 12.909 6.29034 12.7007 6.59391L8.8543 12.1984L6.9301 9.87884C6.69502 9.59546 6.27472 9.55631 5.99135 9.79138C5.70796 10.0265 5.66882 10.4468 5.90389 10.7301L8.39152 13.7289C8.52496 13.8898 8.72615 13.9787 8.93495 13.9693C9.14375 13.9597 9.33602 13.8529 9.45428 13.6805L13.8001 7.34839Z" fill="#2D4BF3"/>
</svg>
